<svg id="OBJECTS" xmlns="http://www.w3.org/2000/svg" viewBox="0 0 474.8 500"><defs><style>.cls-1{fill:#6c71f8;}.cls-1,.cls-10,.cls-11,.cls-12,.cls-13,.cls-14,.cls-15,.cls-16,.cls-17,.cls-18,.cls-19,.cls-2,.cls-20,.cls-22,.cls-23,.cls-24,.cls-26,.cls-27,.cls-28,.cls-29,.cls-3,.cls-30,.cls-4,.cls-5,.cls-6{fill-rule:evenodd;}.cls-2{fill:#1d2854;}.cls-3{fill:#4c5578;}.cls-4{fill:#575ce3;}.cls-5{fill:#7f81db;}.cls-6{fill:#9b9de3;}.cls-10,.cls-7{fill:#989899;}.cls-8{fill:#d6d6d6;}.cls-9{fill:#55c1fc;}.cls-11{fill:#59595b;}.cls-12{fill:#cb6459;}.cls-13{fill:#e6ad83;}.cls-14{fill:#fff;}.cls-15{fill:#c5d2eb;}.cls-16{fill:#ccd7ed;}.cls-17{fill:#9badd7;}.cls-18{fill:#dde5f4;}.cls-19{fill:#3e56a1;}.cls-20{fill:#d56a5c;}.cls-21,.cls-23{fill:#222d5a;}.cls-22{fill:#141a2d;}.cls-24,.cls-25{fill:#304487;}.cls-26{fill:#6f87c2;}.cls-27{fill:#c5404d;}.cls-28{fill:#efccaf;}.cls-29{fill:#2e5f77;}.cls-30{fill:#5293aa;}</style></defs><title>hero</title><path class="cls-1" d="M408.69,0C252.34,34.4,377.43,171.07,297,298.75,226.21,411.21,46.76,298.22,25.2,500H500V0Z" transform="translate(-25.2 0)"/><path class="cls-2" d="M500,456.1H91.05a4.13,4.13,0,0,0-4.12,4.12h0a4.13,4.13,0,0,0,4.12,4.12H500Z" transform="translate(-25.2 0)"/><path class="cls-2" d="M227.13,452.31a23.28,23.28,0,0,1-3.23,3.79H176.06c.5-.79,1-1.59,1.58-2.39,5.88-8.51-5-6.3-8.1.7-.26.57-.49,1.13-.71,1.69h-26c-.3-2.74-2.49-2.26-4.87,0H90.25l0,0c1.93-1.69,3.21-1.84,6-1.52,3,.33,9.59.08,7.66-2s-7.62-1.26-7.76-1.43a.22.22,0,0,1,0-.3c3.82-3.24,7.89-6.43,12.17-9.49,4.85-3.23,9-.95,14.94,2.2,6.15,3.27,11.66,1.41,8.41-2.69s-14.73-4.1-15.1-4.42,0-.62.09-.68a131.52,131.52,0,0,1,22.79-11.49c4-1.09,8.08,1.6,14.29,4s9.11-.9,7.81-3.54-8.47-3.21-9-3.74-.2-.71-.14-.75a79.09,79.09,0,0,1,24.28-2C241.86,423.51,227.13,452.31,227.13,452.31Z" transform="translate(-25.2 0)"/><path class="cls-3" d="M206.3,424c-36.71,9.13-70.53,22.21-93.56,32.14h7.39c23.55-9.89,56.2-22.05,91.12-30.4C209.72,425.1,208.08,424.52,206.3,424Z" transform="translate(-25.2 0)"/><path class="cls-2" d="M221.49,383.06s-24.4-4.63-39.32-46a1.07,1.07,0,0,1-.07-.19c-.11-.35-.24-1.06.47-1.28.94-.28,9.82-.66,19.87,1.78s4.09-6.92-3.56-7.31-14.07,1.44-16.59,1a4.06,4.06,0,0,1-3.23-2.2h0c-3.19-8-6.81-15.92-10.64-23.59h0s-.68-1.78,2-.85,12.49,3.75,17.28,1.36-3.81-7-12.41-6.54-9.84.19-10.31-.71h0c-3.14-6-6.38-11.7-9.59-17.07h0s-.33-1.12.94-1,12.18,3.49,15.09.61-4.25-7-11-5.85-8.11,1.12-8.62.32h0c-9.83-15.71-19.1-27.52-24.55-31.62-5.67-4.26,16.05-.14,41.72,12.66,2.27,1.2,2.87,2.33,3.58,5.07.76,2.92,3.36,9,4.57,6.45s-1.55-7.56-1.44-7.76a.21.21,0,0,1,.27-.11c4.39,2.41,8.84,5.06,13.22,8,4.76,3.36,4.12,8.06,3.3,14.73-.85,6.92,2.87,11.4,5.53,6.89s-1.46-15.22-1.29-15.68.59-.2.67-.16a131.78,131.78,0,0,1,18.9,17.15c2.46,3.39,1.4,8.12,1.35,14.79s4.1,8.19,6.1,6,0-9.06.25-9.77.6-.44.66-.4a79,79,0,0,1,10.54,22C253.66,386.48,221.49,383.06,221.49,383.06Z" transform="translate(-25.2 0)"/><path class="cls-3" d="M240.48,353.44c-39.37-56.29-87.49-99-87.72-99.25a1.46,1.46,0,1,0-1.94,2.17c.23.21,50.26,44.64,89.82,102.33C240.66,357.05,240.61,355.3,240.48,353.44Z" transform="translate(-25.2 0)"/><path class="cls-4" d="M205.66,413.6s-23,9.41-58-17.18l-.16-.13c-.28-.23-.78-.76-.3-1.32.63-.75,7.88-5.91,17.64-9.34s-.34-8-7-4.19-11,8.87-13.35,9.91a4.05,4.05,0,0,1-3.91-.09h0c-7-4.95-14.38-9.65-21.77-14h0s-1.54-1.13,1.2-1.8,12.52-3.65,15.24-8.26-7-3.8-14,1.26-8.15,5.52-9,5h0c-5.88-3.29-11.71-6.34-17.34-9.1h0s-.88-.76.28-1.31,12.11-3.7,13-7.71-7.39-3.58-12.42,1.1-6.19,5.35-7,4.95h0c-16.8-7.82-31-12.68-37.81-13.15-7.07-.49,13.38-8.86,41.89-12.1,2.55-.22,3.67.4,5.76,2.31s7.71,5.7,7.34,2.92-5.41-5.5-5.43-5.72a.21.21,0,0,1,.17-.24c5-.38,10.17-.57,15.43-.53,5.82.24,7.84,4.53,10.78,10.56,3.06,6.27,8.61,8,8.39,2.78s-9.51-12-9.62-12.46.39-.49.47-.5a132.33,132.33,0,0,1,25.2,4.1c3.91,1.5,5.59,6.05,9.18,11.67s7.9,4.64,8.4,1.74-5-7.58-5.11-8.34.26-.69.33-.69a79.11,79.11,0,0,1,20.8,12.68C234.5,399,205.66,413.6,205.66,413.6Z" transform="translate(-25.2 0)"/><path class="cls-5" d="M205.47,378.42C141.79,352.64,78.15,343,77.84,342.93a1.46,1.46,0,1,0-.44,2.88c.31.05,66.46,10.08,131.06,36.93Q207.14,380.67,205.47,378.42Z" transform="translate(-25.2 0)"/><path class="cls-4" d="M269.13,267c-29.06-25.08-49.57,13-46.08,51,2.17,23.63,16.52,83.63,25.36,138.07h20.72Z" transform="translate(-25.2 0)"/><path class="cls-5" d="M269.13,379.47A767.36,767.36,0,0,0,251.57,277.1a1.74,1.74,0,0,0-3.37.86c.09.36,19.09,73.62,20.93,154.58Z" transform="translate(-25.2 0)"/><path class="cls-5" d="M188.24,358c-39.17-3.9-32.07,36.63-6.94,62.3,7.74,7.9,23.21,20.69,41.51,35.77h60.88V443.37C252.91,398.8,215.94,360.78,188.24,358Z" transform="translate(-25.2 0)"/><path class="cls-6" d="M267.39,456.1A705.1,705.1,0,0,0,177.91,375a1.58,1.58,0,1,0-1.89,2.54,704.48,704.48,0,0,1,87.1,78.56Z" transform="translate(-25.2 0)"/><path class="cls-7" d="M275.08,65.74H421.24A21.28,21.28,0,0,1,442.51,87V434.83a21.27,21.27,0,0,1-21.27,21.27H275.08a21.27,21.27,0,0,1-21.27-21.27V87A21.28,21.28,0,0,1,275.08,65.74Z"/><path class="cls-8" d="M263.22,65.74H409.37A21.28,21.28,0,0,1,430.65,87V434.83a21.27,21.27,0,0,1-21.27,21.27H263.22a21.28,21.28,0,0,1-21.28-21.28V87A21.28,21.28,0,0,1,263.22,65.74Z"/><rect class="cls-9" x="255.82" y="118.64" width="160.96" height="284.57" rx="3.93"/><path class="cls-10" d="M361.49,447.2a17.12,17.12,0,1,0-17.11-17.12A17.14,17.14,0,0,0,361.49,447.2Z" transform="translate(-25.2 0)"/><path class="cls-11" d="M372.07,101.51a1.9,1.9,0,1,0,0-3.79H340.85a1.9,1.9,0,0,0,0,3.79Zm10.06,0a1.9,1.9,0,1,0,0-3.79h-2.31a1.9,1.9,0,1,0,0,3.79Z" transform="translate(-25.2 0)"/><path class="cls-12" d="M285.31,182.5,292,193s-1.22,8.49-2.64,19.7l-19.9-5.82c1.41-10,2.47-17,2.47-17Z" transform="translate(-25.2 0)"/><path class="cls-13" d="M299.84,186.83a20.39,20.39,0,0,1,9.11-6.17c2.1-.63-2.05-8-8.26-2.78,0,0-3.65,1.26-4.51-.19s8.11-22.05,9.09-24.3a2.57,2.57,0,0,0-2.4-3.57c-1,.23-2.38,3.51-4.41,7.54s-4.36,8.55-4.91,8.75-1.46-.3-1.21-3,2.19-17.15,1.47-18.34-3.28-1.19-4.22.9-2.34,16.82-3.12,18.65-2.44.79-2.68-.58-1-17.55-1.62-18.68-3.24-1.05-3.66,1.37-.35,17.93-1,18.9-2.32,1-3.63-1.79-3.39-8.82-4.18-9.31-3.24,1.39-2.42,4.46,2.6,10.76,2.72,11.93c.64,6.19-.51,12,.65,16.73a11.73,11.73,0,0,0,2.54,4.79,17,17,0,0,0,12.18,5.87C293.37,198.2,295.27,192.28,299.84,186.83Z" transform="translate(-25.2 0)"/><path class="cls-14" d="M270.91,196.77a38.83,38.83,0,0,0,19.93,4.59s1.06,1.2,1.06,2a39.07,39.07,0,0,1-.68,3.93,10.9,10.9,0,0,1,2.94,9.3c-.84,5.88-3.89,45.56-3.89,45.56s30.24-19.11,35-22.25a16.72,16.72,0,0,1,4.1-1.86l-.47,13.26-8.12,41.64L281,300.43s-19.1,2.93-20.36-16.59S265.24,208,265.24,208s.63-4.31,3.62-4.94l.34-4.62A1.82,1.82,0,0,1,270.91,196.77Z" transform="translate(-25.2 0)"/><path class="cls-15" d="M291.55,245.86c-.71,8.89-1.28,16.28-1.28,16.28l-13.44,8,14.72-24.24Zm37.67-4.3-.35,9.73-8.12,41.64L304.38,296l24.84-54.46Z" transform="translate(-25.2 0)"/><path class="cls-14" d="M431.69,249c2.56,21.14-2.26,57.8-2.26,57.8L416.5,336.05s12.67,61.09,11.92,67.15H387.73c-10.39-4.94-23.72-8.62-40.38-8.62H315.46a13.67,13.67,0,0,1-5.07-9.5C310,379,320.77,344,321,337.54c.93-24.15-2.28-52.1,2.12-75.28a37.24,37.24,0,0,1,1.2-4.68l5-19.55s11.28-4.05,19.31-5.93c5.42,2.82,8.22-.71,16.57-1.78a196.44,196.44,0,0,1,29.14,1,94.49,94.49,0,0,1,26.24,9.77A68.07,68.07,0,0,1,431.69,249Z" transform="translate(-25.2 0)"/><polygon class="cls-16" points="369.89 240.7 385.65 265.85 340.92 333.3 328.31 334.56 309.94 271.04 320.86 257.71 369.89 240.7"/><path class="cls-17" d="M341.35,234.08c2.48-.74,5-1.45,7.3-2,5.42,2.82,8.22-.71,16.57-1.78a196.44,196.44,0,0,1,29.14,1,88.52,88.52,0,0,1,11.49,3.19l5.2,15.94-8.61,4.2-27.51,12.6-16.17-.63-23.72-9Z" transform="translate(-25.2 0)"/><path class="cls-18" d="M429.38,306.93,416.5,336.05s12.67,61.09,11.92,67.15H387.73A87.85,87.85,0,0,0,364,395.88l-5.62-13.13,17.77-25.88s36.06-19.73,37.63-22.15,1.16-5.88,1.16-5.88l-.41-51.62Z" transform="translate(-25.2 0)"/><polygon class="cls-19" points="341.25 233.65 327.64 240.73 334.95 328.35 358.75 262.04 366.45 239.34 341.25 233.65"/><path class="cls-20" d="M371.77,193.16h0c-8.7,0-15.82,7.83-15.82,17.4v23c0,9.57,7.12,17.4,15.82,17.4h0c8.71,0,15.83-7.83,15.83-17.4v-23C387.6,201,380.48,193.16,371.77,193.16Z" transform="translate(-25.2 0)"/><path class="cls-14" d="M420.6,241.1s19,10.4,24.65,24,5,54.59,4.83,74.12a38.63,38.63,0,0,1-9.66,22.05c-9.14,10.08-43.79,40-43.79,40l-20-2.46-3.3-19.69,48.92-42.52-7.77-59.43S412.17,251.81,420.6,241.1Z" transform="translate(-25.2 0)"/><path class="cls-21" d="M253.29,395H373.78a4.1,4.1,0,0,1,4.1,4.1v0a4.09,4.09,0,0,1-4.09,4.09H253.29a4.09,4.09,0,0,1-4.09-4.09v0A4.1,4.1,0,0,1,253.29,395Z"/><path class="cls-22" d="M278.49,403.2H399a4.1,4.1,0,0,0,3.47-1.93,4.11,4.11,0,0,0-3.47-1.93H278.49a4.08,4.08,0,0,0-3.47,1.93A4.08,4.08,0,0,0,278.49,403.2Z" transform="translate(-25.2 0)"/><path class="cls-22" d="M275.3,395H378.48a4.65,4.65,0,0,0,4.7-5.36L375,322.82a6.25,6.25,0,0,0-6-5.36H265.76a4.65,4.65,0,0,0-4.7,5.36l8.23,66.83A6.25,6.25,0,0,0,275.3,395Z" transform="translate(-25.2 0)"/><path class="cls-23" d="M275.3,395H375.44a4.65,4.65,0,0,0,4.7-5.36l-8.22-66.83a6.27,6.27,0,0,0-6-5.36H265.76a4.65,4.65,0,0,0-4.7,5.36l8.23,66.83A6.25,6.25,0,0,0,275.3,395Z" transform="translate(-25.2 0)"/><path class="cls-24" d="M354.15,389.61h-8.87l-70-58.77.41-3.37a5.21,5.21,0,0,1,1.22-2.71l77.25,64.85ZM287,322.85,363.35,387a5,5,0,0,0,.68-2l1.1-8.95-63.37-53.2Z" transform="translate(-25.2 0)"/><path class="cls-21" d="M358.85,395h14.93a4.1,4.1,0,0,1,4.1,4.1v0a4.09,4.09,0,0,1-4.09,4.09H358.84a4.09,4.09,0,0,1-4.09-4.09v0a4.1,4.1,0,0,1,4.1-4.1Z"/><rect class="cls-25" x="249.2" y="392.96" width="111.44" height="4.1" rx="2.05"/><path class="cls-18" d="M315.91,345.93a8.89,8.89,0,0,0-9,10.3,12,12,0,0,0,11.59,10.3,8.9,8.9,0,0,0,9-10.3,10.65,10.65,0,0,0-.65-2.57,4.45,4.45,0,0,1-3.47,1.56,5.93,5.93,0,0,1-5.72-5.09,4.49,4.49,0,0,1,1.21-3.78A10.91,10.91,0,0,0,315.91,345.93Z" transform="translate(-25.2 0)"/><polygon class="cls-26" points="362.4 230.76 343.11 250.54 358.75 262.04 369.17 231.33 362.4 225.69 362.4 230.76"/><polygon class="cls-26" points="330.75 230.76 343.11 250.54 328.95 256.47 323.45 232.1 330.75 226.64 330.75 230.76"/><path class="cls-22" d="M336.9,286.45a3.26,3.26,0,1,0-3.25-3.26A3.27,3.27,0,0,0,336.9,286.45Z" transform="translate(-25.2 0)"/><path class="cls-22" d="M386.52,302.87a2.52,2.52,0,1,0-2.52-2.52A2.52,2.52,0,0,0,386.52,302.87Z" transform="translate(-25.2 0)"/><path class="cls-22" d="M413.4,302.87a2.52,2.52,0,1,0-2.52-2.52A2.52,2.52,0,0,0,413.4,302.87Z" transform="translate(-25.2 0)"/><path class="cls-22" d="M414,299.93a.6.6,0,0,1-1.19,0v-27.3a12.85,12.85,0,0,0-25.69,0v27.3a.58.58,0,0,1-.59.59.59.59,0,0,1-.6-.59v-27.3a14,14,0,0,1,28.07,0Z" transform="translate(-25.2 0)"/><path class="cls-22" d="M415.18,272.63a1.79,1.79,0,1,1-3.57,0,11.66,11.66,0,0,0-23.31,0,1.79,1.79,0,1,1-3.57,0,15.23,15.23,0,0,1,30.45,0Z" transform="translate(-25.2 0)"/><path class="cls-22" d="M356,226.79h-.38a18.13,18.13,0,0,0-18.07,18.07v37.91a.6.6,0,0,1-.6.6.59.59,0,0,1-.59-.6V244.86a19.31,19.31,0,0,1,19.26-19.26H356Z" transform="translate(-25.2 0)"/><path class="cls-22" d="M387.6,225.6h1.18a11.81,11.81,0,0,1,11.77,11.78v22.7a.59.59,0,0,1-.59.6.6.6,0,0,1-.6-.6v-22.7a10.62,10.62,0,0,0-10.58-10.59H387.6Z" transform="translate(-25.2 0)"/><path class="cls-12" d="M339.06,187.49l-.61.14h0a8.48,8.48,0,1,0,7.15,1.37c.33,2.49.08,5.6-3.09,6.06l-.14-4.88A2.92,2.92,0,0,0,339.06,187.49Z" transform="translate(-25.2 0)"/><path class="cls-12" d="M400.17,184.63c.21,0,.41,0,.62.08h0a8.48,8.48,0,1,1-7,2c-.1,2.51.44,5.59,3.65,5.75l-.32-4.88A2.92,2.92,0,0,1,400.17,184.63Z" transform="translate(-25.2 0)"/><path class="cls-13" d="M367.64,143.77h0A29.11,29.11,0,0,0,340,174.12l1.23,26.36a29.1,29.1,0,0,0,30.35,27.62h0a29.1,29.1,0,0,0,27.62-30.34L398,171.4A29.11,29.11,0,0,0,367.64,143.77Z" transform="translate(-25.2 0)"/><path class="cls-22" d="M362.94,208.25a7.51,7.51,0,1,0,15-.63h0a1.29,1.29,0,0,0-1.35-1.24l-12.39.52a1.3,1.3,0,0,0-1.24,1.35Z" transform="translate(-25.2 0)"/><path class="cls-27" d="M366,214a7.49,7.49,0,0,0,4.78,1.47,7.63,7.63,0,0,0,3.92-1.3,4.67,4.67,0,0,0-4.41-2.59A4.74,4.74,0,0,0,366,214Z" transform="translate(-25.2 0)"/><path class="cls-14" d="M376.75,206.38l-11.64.49a2.63,2.63,0,0,0,1.39,2.82c1.07.3,9.49-.27,10.06-1A4.53,4.53,0,0,0,376.75,206.38Z" transform="translate(-25.2 0)"/><path class="cls-12" d="M386.73,199.78a3.82,3.82,0,1,0,3.92,3.71A3.82,3.82,0,0,0,386.73,199.78Z" transform="translate(-25.2 0)"/><path class="cls-12" d="M353.91,200.7a3.82,3.82,0,1,0,3.92,3.71A3.81,3.81,0,0,0,353.91,200.7Z" transform="translate(-25.2 0)"/><path class="cls-22" d="M351.68,187.26a1,1,0,1,1-1-1.79,9.65,9.65,0,0,1,9.05-.39,1,1,0,1,1-1,1.82A7.54,7.54,0,0,0,351.68,187.26Z" transform="translate(-25.2 0)"/><path class="cls-22" d="M388.69,185.53a7.58,7.58,0,0,0-7.08.3,1,1,0,0,1-1.14-1.72,9.64,9.64,0,0,1,9-.46,1,1,0,0,1-.83,1.88Z" transform="translate(-25.2 0)"/><path class="cls-22" d="M385.65,189.15h0a3.64,3.64,0,0,1,3.72,3.38v.22a3.51,3.51,0,0,1-3.38,3.72h0a3.63,3.63,0,0,1-3.72-3.39v-.21A3.51,3.51,0,0,1,385.65,189.15Z" transform="translate(-25.2 0)"/><path class="cls-22" d="M354.94,190.6h0a3.52,3.52,0,0,0-3.39,3.72v.12a3.62,3.62,0,0,0,3.72,3.38h0a3.5,3.5,0,0,0,3.38-3.71V194A3.63,3.63,0,0,0,354.94,190.6Z" transform="translate(-25.2 0)"/><path class="cls-22" d="M356.8,165.53c-3.12.15-9.08,1.91-8.79,8.14s-.66,11.23-4.64,11.42c0,0,.11,2.15.23,4.89s0,5.51-2.58,5.63c-.28-5.88-2.18-8.11-2.18-8.11s-.37-7.86-.69-14.74,1.18-16.21,9.91-23a35,35,0,0,1,39.63-1.86c9.33,5.92,11.69,15.07,12,21.95s.69,14.74.69,14.74-1.69,2.39-1.41,8.27c-2.58.13-3-2.63-3.11-5.36s-.23-4.89-.23-4.89c-4,.19-5.38-4.7-5.68-10.93s-6.39-7.43-9.51-7.29Z" transform="translate(-25.2 0)"/><path class="cls-22" d="M350.56,167.74a6.79,6.79,0,0,0-2.55,5.93c.29,6.23-.66,11.23-4.64,11.42l0,.55,0,.89.1,2.05a2.34,2.34,0,0,1-2.21,2.43h0a2.34,2.34,0,0,1-2.43-2.22l-.14-2.93v-.09l-.61-13a33.68,33.68,0,0,1,.19-5.61c5.26-2.88,12.22.59,12.22.59Zm45.12,15.36v.09l.14,2.94a2.33,2.33,0,0,0,2.43,2.21h0a2.33,2.33,0,0,0,2.21-2.43l-.1-2,0-.89-.61-13.1a34.88,34.88,0,0,0-.72-5.57h0c-5.48-2.37-12,1.68-12.11,1.72a6.83,6.83,0,0,1,3.09,5.68c.3,6.23,1.71,11.12,5.68,10.93Z" transform="translate(-25.2 0)"/><path class="cls-28" d="M368.74,197.65a34.79,34.79,0,0,0-1.56,4.58c-.13,1.07.92,1.61,3.05,1.17S370.11,195.48,368.74,197.65Z" transform="translate(-25.2 0)"/><path class="cls-22" d="M362,158.1l3.54,7s-14,9.76-25.12,2.85-7.71-22.49-.69-28.09,17-2.95,20.5,2.07c0,0,18.7-2.75,25.1-1.77s10.33,5.81,10.92,14.17c0,0,5,2.27,5.61,10.73s-1.4,19.8-1.4,19.8l-5.88-13.7S396.4,149.94,362,158.1Z" transform="translate(-25.2 0)"/><path class="cls-15" d="M320.86,293.51,281.1,301c-.06,0-19.75,3-21.05-17.14-1.26-19.57,4.58-75.79,4.6-76v0s.63-4.3,3.65-5.31l.31-4.2a2.41,2.41,0,0,1,2.23-2.2l.13,1.18a1.22,1.22,0,0,0-1.17,1.1c0,1.53-.26,3.49-.38,5.07l-.44.1c-2.58.54-3.15,4.43-3.15,4.44-.12,1.15-5.84,56.42-4.59,75.73,1.22,18.86,19.6,16.05,19.69,16l39.71-7.49Z" transform="translate(-25.2 0)"/><path class="cls-15" d="M444.7,265.38a.59.59,0,0,1,.32-.78.6.6,0,0,1,.78.32c5.54,13.35,5.11,52.36,4.89,72.55l0,1.83a39.2,39.2,0,0,1-9.81,22.42c-3.38,3.72-10.17,10.1-17.42,16.68s-14.95,13.37-20.18,17.94a.58.58,0,0,1-.83-.06.59.59,0,0,1,.05-.83c5.19-4.54,12.88-11.32,20.16-17.93s14-12.93,17.34-16.6a37.81,37.81,0,0,0,9.5-21.68l0-1.78C449.72,317.36,450.15,278.51,444.7,265.38Z" transform="translate(-25.2 0)"/><path class="cls-29" d="M227.47,204.81a.89.89,0,0,1,1.78,0v1.52h1.52a.9.9,0,1,1,0,1.79h-1.52v1.52a.89.89,0,0,1-1.78,0v-1.52h-1.53a.9.9,0,0,1,0-1.79h1.53Z" transform="translate(-25.2 0)"/><path class="cls-30" d="M119,298.36a.89.89,0,0,1,1.78,0v1.52h1.53a.9.9,0,0,1,0,1.79h-1.53v1.52a.89.89,0,1,1-1.78,0v-1.52h-1.52a.9.9,0,1,1,0-1.79H119Z" transform="translate(-25.2 0)"/><path class="cls-26" d="M245.89,81.18a.9.9,0,0,1,1.79,0V82.7h1.52a.9.9,0,0,1,0,1.79h-1.52V86a.9.9,0,0,1-1.79,0V84.49h-1.52a.9.9,0,0,1,0-1.79h1.52Z" transform="translate(-25.2 0)"/><path class="cls-29" d="M72.86,236.57a.9.9,0,0,1,1.79,0v1.52h1.52a.9.9,0,0,1,0,1.79H74.65v1.52a.9.9,0,0,1-1.79,0v-1.52H71.34a.9.9,0,0,1,0-1.79h1.52Z" transform="translate(-25.2 0)"/><path class="cls-30" d="M30.87,401.2a.89.89,0,1,1,1.78,0v1.52h1.52a.9.9,0,1,1,0,1.79H32.65V406a.89.89,0,1,1-1.78,0v-1.52H29.34a.9.9,0,0,1,0-1.79h1.53Z" transform="translate(-25.2 0)"/><path class="cls-30" d="M324.68,122.36H433.84a3.94,3.94,0,0,1,3.93,3.93v128a44.88,44.88,0,0,1,4.2,5V122.57a3.94,3.94,0,0,0-3.93-3.93H284.94a3.94,3.94,0,0,0-3.92,3.72Z" transform="translate(-25.2 0)"/></svg>