<svg width="46" height="46" viewBox="0 0 46 46" fill="none" xmlns="http://www.w3.org/2000/svg">
<path d="M46 40.8889C46 42.2444 45.4615 43.5445 44.503 44.503C43.5445 45.4615 42.2444 46 40.8889 46H5.11111C3.75556 46 2.45553 45.4615 1.49701 44.503C0.538491 43.5445 0 42.2444 0 40.8889V5.11111C0 3.75556 0.538491 2.45553 1.49701 1.49701C2.45553 0.538491 3.75556 0 5.11111 0L40.8889 0C42.2444 0 43.5445 0.538491 44.503 1.49701C45.4615 2.45553 46 3.75556 46 5.11111V40.8889Z" fill="#6C71F8"/>
<path d="M23.0001 8.94455C24.7643 8.94455 26.1946 7.51435 26.1946 5.75011C26.1946 3.98587 24.7643 2.55566 23.0001 2.55566C21.2359 2.55566 19.8057 3.98587 19.8057 5.75011C19.8057 7.51435 21.2359 8.94455 23.0001 8.94455Z" fill="white"/>
<path d="M22.3252 23.3449C26.3029 23.0676 34.5829 22.4914 34.5829 18.7475C34.5829 14.9231 26.4805 14.6394 23.0203 14.518L22.6306 14.504C9.45157 13.9481 11.7145 10.7946 12.9591 10.7946C13.3092 11.1089 14.4783 12.0085 16.4218 12.0085C17.0888 12.0085 17.7852 11.9011 18.4918 11.6878C18.5505 11.6718 18.6028 11.638 18.6415 11.5911C18.6801 11.5442 18.7033 11.4865 18.7078 11.4258C18.709 11.3652 18.6913 11.3057 18.6572 11.2556C18.6231 11.2054 18.5742 11.1672 18.5174 11.146L16.6506 10.4087L19.5537 9.83498C19.6025 9.82618 19.6485 9.80566 19.6877 9.77517C19.7269 9.74467 19.758 9.70513 19.7786 9.65993C19.7973 9.6159 19.8042 9.56775 19.7986 9.52024C19.793 9.47273 19.7751 9.4275 19.7466 9.38904C19.6802 9.30215 18.1251 7.08521 15.4597 7.08521C11.8193 7.08521 8.89062 8.98015 8.89062 12.2461C8.89062 16.1945 18.2465 17.3023 22.4312 17.3023C30.4455 17.3023 30.8518 18.3744 30.8518 18.589C30.8518 19.7199 28.0062 20.4009 22.3929 20.6143C16.3976 20.8418 12.5233 22.5323 12.5233 24.9217C12.5233 27.1731 15.4265 28.5135 22.2319 29.4041C25.3292 29.8092 29.022 30.4903 29.022 31.432C29.0207 31.4435 28.6962 32.688 22.338 33.4828C16.3976 34.2278 15.6347 35.6256 15.6347 36.759C15.6347 38.2936 17.8031 39.3427 22.4593 40.0583C26.0103 40.6039 27.0057 41.8689 27.4836 42.4771C27.6855 42.7327 27.8452 42.9358 28.1212 42.9358C28.1467 42.9358 28.2106 42.9282 28.2349 42.923C28.4994 42.8617 28.6451 42.5806 28.6259 42.1691C28.6131 41.8638 28.3333 39.1574 22.8491 38.3294C19.4285 37.8132 19.164 36.9903 19.164 36.7501C19.164 36.63 19.3173 36.009 22.3009 35.5912C22.7149 35.5605 32.472 34.7913 32.472 31.3489C32.472 28.5174 26.7706 27.4862 21.7412 26.579C19.2061 26.1203 16.0513 25.5504 16.0513 24.9524C16.0526 24.4183 17.14 23.7053 22.3252 23.3449Z" fill="white"/>
<path d="M15.7255 9.38151C16.2618 9.38151 16.6966 9.12865 16.6966 8.81673C16.6966 8.50481 16.2618 8.25195 15.7255 8.25195C15.1892 8.25195 14.7544 8.50481 14.7544 8.81673C14.7544 9.12865 15.1892 9.38151 15.7255 9.38151Z" fill="#6C71F8"/>
<path d="M20.4443 31.441H21.7221V36.3885H20.4443V31.441ZM24.2777 31.441H25.5554V36.3885H24.2777V31.441ZM20.4443 19.2625H21.7221V24.21H20.4443V19.2625ZM24.2777 19.2625H25.5554V24.21H24.2777V19.2625Z" fill="#6C71F8"/>
</svg>
